<svg width="17" height="10" viewBox="0 0 17 10" fill="none" xmlns="http://www.w3.org/2000/svg">
<path fill-rule="evenodd" clip-rule="evenodd" d="M12.5329 1.69706C12.7282 1.5018 12.7282 1.18521 12.5329 0.989952C12.3377 0.79469 12.0211 0.79469 11.8258 0.989952L4.85115 7.96464L1.19707 4.31056C1.0018 4.1153 0.685222 4.1153 0.48996 4.31056C0.294698 4.50583 0.294698 4.82241 0.48996 5.01767L4.49759 9.0253L4.85115 9.37886L5.2047 9.0253L12.5329 1.69706ZM16.3536 2.35355C16.5488 2.15829 16.5488 1.84171 16.3536 1.64645C16.1583 1.45118 15.8417 1.45118 15.6464 1.64645L9 8.29289L8.35355 7.64645C8.15829 7.45118 7.84171 7.45118 7.64645 7.64645C7.45118 7.84171 7.45118 8.15829 7.64645 8.35355L8.64645 9.35355L9 9.70711L9.35355 9.35355L16.3536 2.35355Z" fill="#0546F0"/>
</svg>
