<svg width="97" height="30" viewBox="0 0 97 30" fill="none" xmlns="http://www.w3.org/2000/svg">
<line x1="1" y1="10" x2="1" y2="20" stroke="white" stroke-width="2"/>
<line x1="6" y1="5" x2="6" y2="25" stroke="white" stroke-width="2"/>
<line x1="11" y1="4.37114e-08" x2="11" y2="30" stroke="white" stroke-width="2"/>
<line x1="16" y1="10" x2="16" y2="20" stroke="white" stroke-width="2"/>
<line x1="21" y1="4.37114e-08" x2="21" y2="30" stroke="white" stroke-width="2"/>
<line x1="26" y1="5" x2="26" y2="25" stroke="white" stroke-width="2"/>
<line x1="31" y1="5" x2="31" y2="25" stroke="white" stroke-width="2"/>
<line x1="36" y1="4.37114e-08" x2="36" y2="30" stroke="white" stroke-width="2"/>
<line x1="41" y1="10" x2="41" y2="20" stroke="white" stroke-width="2"/>
<line x1="46" y1="5" x2="46" y2="25" stroke="white" stroke-width="2"/>
<line x1="51" y1="4.37114e-08" x2="51" y2="30" stroke="white" stroke-width="2"/>
<line x1="56" y1="10" x2="56" y2="20" stroke="white" stroke-width="2"/>
<line x1="61" y1="5" x2="61" y2="25" stroke="white" stroke-width="2"/>
<line x1="66" y1="4.37114e-08" x2="66" y2="30" stroke="white" stroke-width="2"/>
<line x1="71" y1="10" x2="71" y2="20" stroke="white" stroke-width="2"/>
<line x1="76" y1="5" x2="76" y2="25" stroke="white" stroke-width="2"/>
<line x1="81" y1="4.37114e-08" x2="81" y2="30" stroke="white" stroke-width="2"/>
<line x1="86" y1="10" x2="86" y2="20" stroke="white" stroke-width="2"/>
<line x1="91" y1="5" x2="91" y2="25" stroke="white" stroke-width="2"/>
<line x1="96" y1="4.37114e-08" x2="96" y2="30" stroke="white" stroke-width="2"/>
</svg>
